<svg width="69" height="221" viewBox="0 0 69 221" fill="none" xmlns="http://www.w3.org/2000/svg">
<g style="mix-blend-mode:multiply" opacity="0.3">
<path d="M41.9424 220.175C55.5278 220.175 66.5409 217.361 66.5409 213.89C66.5409 210.419 55.5278 207.605 41.9424 207.605C28.3569 207.605 17.3438 210.419 17.3438 213.89C17.3438 217.361 28.3569 220.175 41.9424 220.175Z" fill="#BDCFD5"/>
</g>
<g style="mix-blend-mode:multiply" opacity="0.4">
<path d="M61.1867 111.193H51.4116L51.2083 109.295C52.9737 99.316 55.9609 89.5921 60.1024 80.3428C63.9142 72.4482 68.6916 64.5197 68.7593 55.7611C68.7593 48.595 65.6761 41.5813 66.557 34.466L55.0201 54.6599C55.9179 45.2406 55.8671 31.6707 55.8671 19.7441C50.6323 27.8251 45.3466 35.9907 42.0939 45.0543C41.5857 46.4434 41.1114 48.002 40.6201 49.6284C40.6201 48.2618 40.6709 46.8896 40.7726 45.5117C41.0775 40.3108 41.6534 35.1098 42.1786 29.9088C45.245 29.9088 47.8031 27.8081 46.109 22.9291C45.0078 19.7441 48.7518 18.8293 47.3965 14.7973C47.1424 14.035 45.5669 12.8322 45.3975 12.0359C44.2963 6.8011 47.82 1.71875 44.7028 0.177101C42.6021 -0.70384 40.6879 1.87123 40.349 4.15829C40.0102 6.44535 40.1626 9.08814 38.4008 10.5281C37.7254 10.9311 37.085 11.3902 36.4864 11.9004C34.9786 13.5945 36.4864 16.2373 36.3678 18.5075C36.263 19.4772 36.0294 20.4286 35.6733 21.3366C35.1077 22.7293 35.0825 24.2829 35.6027 25.6931C36.1229 27.1033 37.151 28.2684 38.4855 28.9601C37.6647 35.5584 37.2404 42.2 37.2149 48.8491C33.2574 33.4056 26.6172 18.7775 17.597 5.63216C16.2078 20.7437 16.6314 25.1315 17.7495 33.8562C18.4441 39.3282 18.9354 44.4444 19.4436 49.2726C11.6337 38.0068 4.89112 28.8246 4.09489 29.0787C1.85865 47.5616 4.09488 57.506 14.2596 72.7023C17.2582 77.1917 32.3358 87.5427 35.9612 102.061C36.3848 103.671 36.9099 107.144 37.5028 111.26H30.7264C30.4327 111.26 30.1421 111.319 29.8727 111.436C29.6032 111.553 29.3608 111.724 29.1605 111.939C28.9601 112.153 28.8062 112.407 28.7084 112.684C28.6106 112.961 28.5709 113.255 28.5919 113.547L35.6902 209.18C35.7331 209.784 36.0036 210.349 36.447 210.761C36.8904 211.173 37.4736 211.401 38.0789 211.4H53.7834C54.3904 211.402 54.9756 211.174 55.4218 210.762C55.8679 210.351 56.142 209.786 56.189 209.18L63.2704 113.547C63.301 113.253 63.2701 112.956 63.1798 112.675C63.0895 112.393 62.9417 112.134 62.7459 111.912C62.55 111.691 62.3102 111.513 62.0418 111.389C61.7734 111.265 61.4822 111.198 61.1867 111.193Z" fill="#C1B5AA"/>
</g>
<path d="M38.7058 46.816C41.9585 37.7525 47.1764 29.5868 52.479 21.5059C52.479 36.2277 52.479 53.44 50.7849 62.3002C48.3962 74.6842 44.6352 89.7957 37.0117 99.9435C29.5068 87.0004 33.8607 60.2165 38.7058 46.816Z" fill="#8A9636"/>
<path d="M40.5528 92.7101C39.9429 86.1369 39.3161 79.5638 38.3166 73.0414C34.437 47.5111 28.5922 28.7063 14.2092 7.25879C12.82 22.3703 13.2436 26.7581 14.3617 35.4828C17.1909 57.6757 16.4963 74.1426 33.8271 88.2885C35.6955 89.5285 37.2732 91.1582 38.452 93.0658C40.9254 98.1482 38.8756 105.399 39.7565 110.719C43.9071 107.093 41.1627 98.1821 40.5528 92.7101Z" fill="#66741F"/>
<path d="M37.7749 13.8658C34.1326 32.3148 32.1673 52.8306 35.6064 71.3812C39.4012 91.7106 46.3303 110.346 43.7383 131.404C43.5011 133.301 46.6352 133.691 47.1265 131.861C51.1924 114.158 44.9241 96.0645 40.8582 78.9708C38.1615 68.6089 37.0196 57.9037 37.47 47.2061C38.1138 36.1774 39.9943 25.1826 39.9265 14.1369C39.9265 12.9849 38.0968 12.663 37.8596 13.8658H37.7749Z" fill="#66741F"/>
<path d="M38.8411 85.2387C29.5234 69.9916 2.43447 30.1968 0.791174 30.705C-1.44506 49.1878 0.791174 59.1323 10.9559 74.3285C13.9545 78.818 29.0321 89.169 32.6575 103.688C33.9789 108.889 36.6387 132.894 38.0787 138.129C46.2613 124.085 44.6011 94.6918 38.8411 85.2387Z" fill="#8A9636"/>
<path d="M48.7863 61.3009L63.2371 36.1602C62.3562 43.2755 65.5073 50.2891 65.4395 57.4552C65.4395 66.2138 60.5943 74.1423 56.7825 82.0369C52.022 91.8797 46.6179 110.718 46.3637 124.593C39.1807 108.821 40.2819 76.1413 48.7863 61.3009Z" fill="#66741F"/>
<path d="M57.7995 112.887H27.3901C27.0964 112.886 26.8058 112.946 26.5364 113.063C26.2669 113.179 26.0244 113.35 25.8241 113.565C25.6237 113.779 25.4698 114.033 25.372 114.31C25.2741 114.587 25.2345 114.881 25.2555 115.174L32.3538 210.807C32.3967 211.41 32.6672 211.975 33.1106 212.387C33.554 212.799 34.1373 213.028 34.7426 213.026H50.447C51.054 213.028 51.6392 212.8 52.0854 212.389C52.5315 211.977 52.8056 211.412 52.8526 210.807L59.9341 115.174C59.9551 114.881 59.9154 114.587 59.8176 114.31C59.7197 114.033 59.5657 113.779 59.3654 113.565C59.165 113.35 58.9226 113.179 58.6532 113.063C58.3837 112.946 58.0931 112.886 57.7995 112.887Z" fill="#7B6357"/>
<path d="M33.2171 122.95C38.8922 123.853 44.6697 123.91 50.3616 123.119C50.6042 123.119 50.8369 123.023 51.0084 122.851C51.18 122.68 51.2763 122.447 51.2763 122.204C51.2763 121.962 51.18 121.729 51.0084 121.557C50.8369 121.386 50.6042 121.289 50.3616 121.289C44.6698 120.498 38.8921 120.555 33.2171 121.459C33.0574 121.508 32.9175 121.606 32.8181 121.74C32.7187 121.875 32.665 122.037 32.665 122.204C32.665 122.371 32.7187 122.534 32.8181 122.668C32.9175 122.802 33.0574 122.901 33.2171 122.95Z" fill="#6D564D"/>
<path d="M35.114 134.91C40.3488 134.724 45.8547 135.351 51.0218 134.554C51.2181 134.5 51.3912 134.383 51.5145 134.221C51.6378 134.058 51.7045 133.86 51.7045 133.657C51.7045 133.453 51.6378 133.255 51.5145 133.093C51.3912 132.93 51.2181 132.813 51.0218 132.759C45.9394 131.962 40.3488 132.589 35.114 132.403C34.7815 132.403 34.4626 132.535 34.2275 132.77C33.9924 133.005 33.8604 133.324 33.8604 133.657C33.8604 133.989 33.9924 134.308 34.2275 134.543C34.4626 134.778 34.7815 134.91 35.114 134.91Z" fill="#6D564D"/>
<path d="M35.8429 148.463C40.9882 149.436 46.2567 149.573 51.4457 148.87C51.6298 148.817 51.7917 148.706 51.907 148.553C52.0223 148.401 52.0846 148.214 52.0846 148.023C52.0846 147.831 52.0223 147.645 51.907 147.492C51.7917 147.339 51.6298 147.228 51.4457 147.176C46.2567 146.472 40.9882 146.61 35.8429 147.582C35.7468 147.609 35.6621 147.667 35.6017 147.746C35.5414 147.826 35.5088 147.923 35.5088 148.023C35.5088 148.123 35.5414 148.22 35.6017 148.299C35.6621 148.379 35.7468 148.436 35.8429 148.463Z" fill="#6D564D"/>
<path d="M35.9618 161.321L41.671 161.694C43.3519 161.993 45.0724 161.993 46.7533 161.694C46.9487 161.629 47.1185 161.504 47.2389 161.336C47.3592 161.169 47.424 160.968 47.424 160.762C47.424 160.556 47.3592 160.356 47.2389 160.188C47.1185 160.021 46.9487 159.896 46.7533 159.831C45.0724 159.532 43.3519 159.532 41.671 159.831L35.9618 160.203C35.809 160.203 35.6625 160.264 35.5545 160.372C35.4465 160.48 35.3857 160.627 35.3857 160.779C35.3857 160.932 35.4465 161.079 35.5545 161.187C35.6625 161.295 35.809 161.355 35.9618 161.355V161.321Z" fill="#6D564D"/>
<path d="M37.6557 175.569C41.4996 176.24 45.4219 176.337 49.2943 175.857C49.454 175.808 49.5939 175.71 49.6933 175.575C49.7927 175.441 49.8463 175.279 49.8463 175.112C49.8463 174.945 49.7927 174.782 49.6933 174.648C49.5939 174.514 49.454 174.415 49.2943 174.366C45.4219 173.886 41.4996 173.983 37.6557 174.654C37.5344 174.654 37.418 174.703 37.3322 174.788C37.2465 174.874 37.1982 174.99 37.1982 175.112C37.1982 175.233 37.2465 175.349 37.3322 175.435C37.418 175.521 37.5344 175.569 37.6557 175.569Z" fill="#6D564D"/>
<path d="M37.9258 189.698C39.7875 190.077 41.6847 190.253 43.5842 190.223C45.4985 190.479 47.443 190.393 49.3273 189.969C49.5114 189.917 49.6733 189.806 49.7886 189.653C49.9038 189.5 49.9662 189.314 49.9662 189.122C49.9662 188.931 49.9038 188.745 49.7886 188.592C49.6733 188.439 49.5114 188.328 49.3273 188.275C47.443 187.852 45.4985 187.765 43.5842 188.021C41.6847 187.992 39.7875 188.168 37.9258 188.546C37.7968 188.578 37.6822 188.652 37.6002 188.756C37.5182 188.86 37.4736 188.989 37.4736 189.122C37.4736 189.255 37.5182 189.384 37.6002 189.488C37.6822 189.593 37.7968 189.667 37.9258 189.698Z" fill="#6D564D"/>
<path d="M32.2853 22.9628C32.6415 22.0548 32.875 21.1033 32.9798 20.1336C33.1323 17.8635 31.5906 15.2207 33.0984 13.5265C33.697 13.0163 34.3374 12.5573 35.0128 12.1543C36.7069 10.7143 36.7069 8.05453 36.9611 5.78441C37.2152 3.5143 39.2141 0.922285 41.3148 1.80323C44.432 3.41264 40.9083 8.49499 42.0095 13.662C42.1789 14.4583 43.7036 15.6611 44.0085 16.4235C45.3638 20.4555 41.6198 21.3703 42.721 24.5552C46.5497 35.5331 28.9817 32.6362 32.2853 22.9628Z" fill="#E29D36"/>
<path d="M38.5033 203.607C40.7947 204.083 43.1526 204.146 45.4661 203.793C45.6138 203.747 45.7427 203.654 45.8342 203.529C45.9257 203.404 45.9751 203.254 45.9751 203.099C45.9751 202.944 45.9257 202.793 45.8342 202.668C45.7427 202.543 45.6138 202.451 45.4661 202.404C43.1526 202.052 40.7947 202.115 38.5033 202.591C38.3685 202.591 38.2392 202.644 38.1439 202.739C38.0486 202.835 37.9951 202.964 37.9951 203.099C37.9951 203.234 38.0486 203.363 38.1439 203.458C38.2392 203.553 38.3685 203.607 38.5033 203.607Z" fill="#6D564D"/>
</svg>
